PathFileType	4	(X/Y/Z)	C:\Users\Basilio\Documents\Thesis Gigler\squatting_fais\c3dfiles\019\SLS_back_pre2\markers_experimental.trc
DataRate	CameraRate	NumFrames	NumMarkers	Units	OrigDataRate	OrigDataStartFrame	OrigNumFrames
200.000000	200.000000	4	59	mm	200.000000	185	1482
Frame#	Time	FHD			LBHD			RBHD			C7			T10			CLAV			LSHO			LUUPA			LMUPA			LDUPA			LLEP			LMEP			LRAD			LUL			LRFIN			RSHO			RUPA1			RMUPA			RDUPA			RLEP			RMEP			RRAD			RUL			RUFIN			LASI			RASI			USACR			LSACR			RSACR			LTHI1			LTHI2			LTHI3			LTHI4			LLFC			LTIB1			LTIB2			LTIB3			LTIB4			LLMAL			LMMAL			LHEE			LMT1			LMT2			LMT5			RTHI			RTHI2			RTHI3			RTHI4			RLFC			RTIB1			RTIB2			RTIB3			RTIB4			RLMAL			RMMAL			RHEE			RMT1			RMT2			RMT5			
		X1	Y1	Z1	X2	Y2	Z2	X3	Y3	Z3	X4	Y4	Z4	X5	Y5	Z5	X6	Y6	Z6	X7	Y7	Z7	X8	Y8	Z8	X9	Y9	Z9	X10	Y10	Z10	X11	Y11	Z11	X12	Y12	Z12	X13	Y13	Z13	X14	Y14	Z14	X15	Y15	Z15	X16	Y16	Z16	X17	Y17	Z17	X18	Y18	Z18	X19	Y19	Z19	X20	Y20	Z20	X21	Y21	Z21	X22	Y22	Z22	X23	Y23	Z23	X24	Y24	Z24	X25	Y25	Z25	X26	Y26	Z26	X27	Y27	Z27	X28	Y28	Z28	X29	Y29	Z29	X30	Y30	Z30	X31	Y31	Z31	X32	Y32	Z32	X33	Y33	Z33	X34	Y34	Z34	X35	Y35	Z35	X36	Y36	Z36	X37	Y37	Z37	X38	Y38	Z38	X39	Y39	Z39	X40	Y40	Z40	X41	Y41	Z41	X42	Y42	Z42	X43	Y43	Z43	X44	Y44	Z44	X45	Y45	Z45	X46	Y46	Z46	X47	Y47	Z47	X48	Y48	Z48	X49	Y49	Z49	X50	Y50	Z50	X51	Y51	Z51	X52	Y52	Z52	X53	Y53	Z53	X54	Y54	Z54	X55	Y55	Z55	X56	Y56	Z56	X57	Y57	Z57	X58	Y58	Z58	X59	Y59	Z59	

186	0.925	-200.7434997558594	1714.027221679688	-728.9088745117189	-337.0810241699219	1685.642211914063	-866.0740356445315	-334.2985839843751	1681.086181640625	-726.2052001953126	-369.3008117675782	1503.276733398438	-787.8807373046877	-396.8329162597657	1208.78369140625	-790.676452636719	-239.0416870117188	1450.864624023438	-801.6003417968752	-307.6433105468751	1484.750854492188	-956.8270263671877	-304.1838073730469	1309.557495117188	-1015.692565917969	-271.6380004882813	1282.8876953125	-990.5593261718752	-299.6775207519532	1242.957763671875	-1026.29443359375	-335.2806396484376	1163.829956054688	-1029.031127929688	-356.6788635253907	1150.444091796875	-972.7282714843752	-223.2623901367188	935.0755004882815	-1037.296020507813	-287.4301452636719	928.3868408203127	-1048.53173828125	-207.4085998535157	866.2896728515627	-1064.97802734375	-279.3275146484376	1477.842895507813	-647.8535156250001	-307.7146911621094	1292.200927734375	-557.5713500976564	-267.8021545410157	1272.079833984375	-578.1270141601564	-294.6184387207032	1221.948364257813	-554.7595214843751	-281.3802185058594	1149.789916992188	-558.6320800781251	-328.3695678710938	1141.841796875	-593.1472778320314	-161.7358703613282	937.3428955078127	-625.5169677734376	-193.3988494873047	920.3809814453127	-568.0906372070314	-126.3638381958008	864.652526855469	-610.2194213867189	-237.4693145751954	1008.247436523438	-916.3411865234377	-217.9675750732422	1008.101989746094	-706.9351806640626	-389.584197998047	1077.82470703125	-796.6811523437502	-396.580047607422	1044.5888671875	-821.9319458007815	-391.2534484863282	1047.244995117188	-764.3984985351564	-309.2979125976563	748.7723999023439	-983.6091918945315	-274.0982360839844	670.8463745117189	-987.0070800781252	-226.6655578613282	675.4483032226564	-975.9372558593752	-299.7895202636719	617.4036865234376	-971.5076293945315	-305.2300109863282	520.1485595703126	-958.1614990234377	-264.4764709472657	377.6070556640626	-929.0154418945315	-324.8587341308594	338.7229309082032	-979.8792114257815	-286.7577209472657	332.2072448730469	-959.528747558594	-293.8043823242188	252.4316558837891	-923.8506469726565	-369.5997009277344	127.0860061645508	-942.042175292969	-351.9324035644532	135.4267578125	-866.5571899414065	-431.5939331054689	94.37203979492189	-892.4683227539065	-223.4328002929688	51.94850540161134	-878.277282714844	-224.3063659667969	54.15609359741212	-913.603454589844	-268.9043884277344	36.30823135375977	-966.9400634765627	-260.9931030273438	805.0357666015627	-635.0189208984376	-224.2997131347657	750.1994628906251	-643.4265747070314	-198.935043334961	751.4584960937501	-666.3834228515626	-254.9824829101563	675.7739868164064	-643.9340820312501	-306.5419006347657	515.9121093750001	-671.8948974609376	-287.1603698730469	332.6080322265626	-736.3703002929689	-342.2206115722657	256.3002929687501	-677.3948364257814	-311.5657958984376	252.4449005126954	-712.8515625000001	-326.6242980957032	211.9709472656251	-753.4620971679689	-390.4656066894532	130.7625885009766	-706.9823608398439	-378.5695190429688	136.6588897705078	-783.746520996094	-458.756561279297	106.634147644043	-754.3446655273439	-259.8464355468751	55.37926483154298	-785.1900024414065	-254.4836425781251	61.17942428588869	-739.9415283203126	-292.9366455078126	50.09507751464845	-684.0997924804689	
187	0.93	-201.0562591552735	1714.042114257813	-728.7939453125001	-337.3179321289063	1685.675537109375	-865.7321777343752	-334.5482482910157	1681.26708984375	-725.9118652343751	-369.5299987792969	1503.229248046875	-787.5185546875002	-396.965301513672	1208.717407226563	-790.3864746093752	-239.236312866211	1450.917724609375	-801.2963867187502	-308.0018005371094	1484.869384765625	-956.5786743164065	-304.0061950683594	1309.663330078125	-1015.270324707031	-271.4909667968751	1283.076904296875	-990.0474853515627	-299.3353881835938	1243.061157226563	-1025.86279296875	-334.6426086425782	1163.827026367188	-1028.57861328125	-356.2789916992188	1150.436889648438	-972.3822021484377	-222.3684387207032	935.3079833984377	-1036.83642578125	-286.5633544921876	928.4024047851565	-1047.802734375	-206.4320068359376	866.4935302734377	-1064.534912109375	-279.2898254394532	1477.7919921875	-647.5424804687501	-305.6117858886719	1291.166625976563	-556.6531982421876	-267.4247131347657	1272.131591796875	-577.9976196289064	-294.2048950195313	1221.64111328125	-554.5006103515626	-280.9738769531251	1149.77294921875	-558.6016845703126	-327.9514465332032	1141.744262695313	-592.9958496093751	-161.4444732666016	937.2252197265627	-625.4851684570314	-193.0854644775391	920.3157958984377	-568.0401611328126	-126.2911071777344	864.4260253906252	-610.3671264648439	-237.5405578613282	1008.295715332031	-916.066589355469	-217.8635711669922	1008.224853515625	-706.6262817382814	-389.6971740722657	1077.819702148438	-796.4144287109377	-396.8907470703126	1044.675659179688	-821.658386230469	-391.2403564453126	1047.156494140625	-764.1688232421876	-309.2835693359376	748.7885131835939	-983.4466552734377	-273.9260864257813	670.8698730468751	-986.8816528320315	-226.5461883544922	675.5801391601564	-975.8874511718752	-299.5845336914063	617.4186401367189	-971.3280029296877	-304.8661804199219	520.1220703125001	-958.0451660156252	-263.4942626953126	378.1714477539063	-929.2198486328127	-324.5877685546876	338.7114562988282	-979.7751464843752	-286.4297790527344	331.9098510742188	-959.058288574219	-293.6159973144532	252.5046539306641	-923.7375488281252	-369.5090637207032	127.181999206543	-942.0034790039065	-351.8843994140626	135.4132232666016	-866.530944824219	-431.4437561035157	94.42208862304689	-892.3970336914065	-228.9629058837891	57.79017639160158	-874.177673339844	-224.276351928711	54.18809127807619	-913.5892333984377	-268.9409484863282	36.17485427856446	-966.7261962890627	-261.0600585937501	805.0878906250002	-634.9635620117189	-224.3842163085938	750.2111816406251	-643.2683715820314	-199.0690155029297	751.4616088867189	-666.1885375976564	-255.0835723876954	675.7354736328126	-643.7928466796876	-306.6243591308594	515.9315185546876	-671.7803955078126	-286.6632080078126	332.6353454589844	-736.2285156250001	-342.1529541015626	256.2922668457032	-677.3521728515626	-311.5864257812501	252.3645629882813	-712.8599243164064	-326.6109008789063	211.9452667236329	-753.4718627929689	-390.5125427246095	130.7564392089844	-706.9815673828126	-378.7790222167969	136.5906677246094	-783.9417724609377	-458.7460937500001	106.6263885498047	-754.3617553710939	-259.9177551269532	55.34218215942384	-785.2100830078127	-254.5377197265626	61.16011428833009	-739.8955688476564	-292.9258422851563	50.08621215820314	-684.1632080078126	
188	0.9350000000000001	-201.3835906982422	1714.254516601563	-728.9033813476564	-337.6900634765626	1685.700317382813	-865.485046386719	-334.7296142578126	1680.915771484375	-725.7708740234376	-369.6771545410157	1503.14501953125	-787.227722167969	-397.0521240234376	1208.671630859375	-790.0578613281252	-239.5590209960938	1450.947021484375	-800.9729614257815	-308.2601623535157	1484.90869140625	-956.2651977539065	-303.8134155273438	1309.7265625	-1014.786010742188	-271.2550964355469	1283.23876953125	-989.514343261719	-298.9100341796876	1243.12353515625	-1025.356567382813	-333.8446350097657	1163.712280273438	-1028.187377929688	-355.8297729492188	1150.379272460938	-972.008972167969	-221.3750152587891	935.5858154296877	-1036.399047851563	-285.3838195800782	928.402282714844	-1046.987060546875	-205.4537811279297	866.7254638671877	-1063.979736328125	-279.4530639648438	1477.813232421875	-647.2089843750001	-305.3085632324219	1291.17919921875	-556.4148559570314	-267.1363830566407	1272.181762695313	-577.9010620117189	-293.6614685058594	1221.63623046875	-554.3348388671876	-280.5457153320313	1149.654907226563	-558.5820312500001	-327.4825134277344	1141.72607421875	-592.8436279296876	-161.0623931884766	937.1816406250002	-625.4599609375001	-192.7945556640626	920.2230224609377	-568.0180664062501	-126.0117721557617	864.2462158203127	-610.4120483398439	-237.6080017089844	1008.365478515625	-915.8581542968752	-218.2065734863282	1008.105834960938	-706.4445190429689	-389.8275756835939	1077.843383789063	-796.1739501953127	-396.9562377929689	1044.591674804688	-821.4416503906252	-391.3438415527345	1047.146484375	-763.9783935546876	-309.0361938476563	748.7431030273439	-983.2487792968752	-273.7378845214844	670.9882812500001	-986.7549438476565	-226.3879089355469	675.6446533203126	-975.7659912109377	-299.2857360839844	617.4874267578126	-971.221862792969	-304.5229187011719	520.1302490234376	-957.9821777343752	-263.2819519042969	378.1431579589844	-929.1799316406252	-324.5046081542969	338.7397766113282	-979.7024536132815	-286.2850646972657	331.9040222167969	-959.0066528320315	-293.4422302246094	252.4689941406251	-923.7247314453127	-369.4985656738282	127.2503051757813	-941.9792480468752	-351.7697753906251	135.3994750976563	-866.5210571289065	-431.3876037597657	94.35447692871095	-892.4190673828127	-223.4239654541016	51.91897583007814	-878.2772216796877	-224.3202667236329	54.19184875488283	-913.5963134765627	-268.8017272949219	36.35779190063477	-966.8767089843752	-261.1002807617188	805.004089355469	-634.7902221679689	-224.4645538330079	750.1508178710939	-643.1159667968751	-199.2265167236329	751.4650268554689	-665.9159545898439	-255.2359161376954	675.7988891601564	-643.6354980468751	-306.6357727050782	515.9602050781251	-671.6751098632814	-286.7331542968751	332.6260375976563	-736.1768188476564	-342.1586303710938	256.2079772949219	-677.3121337890626	-311.5575256347657	252.3394165039063	-712.8217163085939	-326.6134643554688	211.9311218261719	-753.4747924804689	-390.5130615234376	130.6906280517578	-706.9815063476564	-378.6248474121094	136.5250549316407	-783.8009033203127	-458.7495422363282	106.6237335205078	-754.3640747070314	-259.9103393554688	55.3327102661133	-785.244079589844	-254.5251007080079	61.20194625854494	-739.9749755859376	-292.9963073730469	50.09326553344728	-684.1871337890626	
189	0.9400000000000001	-201.6256713867188	1714.14013671875	-728.3972778320314	-338.0024719238282	1685.723510742188	-865.1627197265627	-335.0570983886719	1681.34228515625	-725.4157714843751	-369.9526367187501	1503.093872070313	-786.794860839844	-397.2903137207032	1208.682373046875	-789.7014770507815	-239.7495269775391	1451.042114257813	-800.7276000976565	-308.5539245605469	1484.9482421875	-955.9075927734377	-303.6341552734376	1309.824584960938	-1014.367309570313	-271.0841674804688	1283.351440429688	-988.9402465820315	-298.5281677246094	1243.209106445313	-1024.900146484375	-333.3258666992188	1163.725952148438	-1027.8359375	-355.2370300292969	1150.376586914063	-971.6275634765627	-220.405258178711	935.8987426757815	-1035.893432617188	-284.4338989257813	928.4969482421877	-1046.284423828125	-204.2604370117188	866.963562011719	-1063.386840820313	-279.5174255371094	1477.8642578125	-646.9035644531251	-304.9563598632813	1290.960327148438	-556.0711059570314	-266.7828369140626	1272.09619140625	-577.7944335937501	-293.2638549804688	1221.302734375	-554.1077880859376	-279.9941406250001	1149.642456054688	-558.5461425781251	-327.0397338867188	1141.64794921875	-592.6779174804689	-160.746337890625	937.0810546875002	-625.4053955078126	-192.4061584472657	920.1500244140627	-567.9325561523439	-125.6013107299805	864.0162353515627	-610.5203247070314	-237.7078704833985	1008.404052734375	-915.615417480469	-218.1375427246094	1008.2236328125	-706.1370849609376	-390.008270263672	1077.783447265625	-795.9725341796877	-397.2512817382814	1044.59521484375	-821.1423339843752	-391.3529663085939	1047.072998046875	-763.6619873046876	-308.9054565429688	748.6928100585939	-983.0524902343752	-273.5715637207032	670.9556274414064	-986.6479492187502	-226.2141418457032	675.7788085937501	-975.691589355469	-299.0560302734376	617.4764404296876	-971.0651855468752	-304.1973571777344	520.1054077148439	-957.954284667969	-263.1052551269532	378.1792602539063	-929.031677246094	-324.2339477539063	338.7336730957032	-979.5750122070315	-286.1077575683594	331.9012756347657	-958.860778808594	-293.3385620117188	252.4848632812501	-923.6447753906252	-369.4422302246094	127.2997436523438	-941.9243774414065	-351.7095031738282	135.4733581542969	-866.4597167968752	-431.4037170410157	94.35771942138673	-892.4827880859377	-223.4130249023438	51.89696884155275	-878.2834472656252	-224.3192901611329	54.13607025146486	-913.606628417969	-268.8281250000001	36.32870864868165	-966.8494262695315	-261.3159790039063	805.0062255859377	-634.7781982421876	-224.5592346191407	750.1297607421876	-642.8943481445314	-199.2413787841797	751.4475097656251	-665.8947753906251	-255.2855682373047	675.7590942382814	-643.4784545898439	-306.7345581054688	515.9390869140626	-671.5747070312501	-286.7208557128907	332.6301574707032	-736.1457519531251	-342.0737609863282	256.1748657226563	-677.3043212890626	-311.6318359375001	252.309555053711	-712.7723388671876	-326.6093444824219	211.9338684082032	-753.4661865234376	-390.5269165039064	130.6950988769532	-706.9833984375001	-378.6372680664063	136.5434722900391	-783.7537231445315	-458.7514648437501	106.6314392089844	-754.3580932617189	-259.9100952148438	55.33278656005861	-785.2441406250002	-254.4839172363282	61.15621948242189	-739.9494628906251	-292.9844055175782	50.08912277221681	-684.1246337890626	
